<svg xmlns="http://www.w3.org/2000/svg" viewBox="0 0 400 400">
  <defs>
    <radialGradient id="bgGradient" cx="50%" cy="30%" r="70%">
      <stop offset="0%" stop-color="#4a5d3a"/>
      <stop offset="100%" stop-color="#2d3a22"/>
    </radialGradient>
    <linearGradient id="furGradient" x1="0%" y1="0%" x2="100%" y2="100%">
      <stop offset="0%" stop-color="#f5f0e8"/>
      <stop offset="30%" stop-color="#e8ddd0"/>
      <stop offset="70%" stop-color="#d4c4a8"/>
      <stop offset="100%" stop-color="#c2b090"/>
    </linearGradient>
    <radialGradient id="eyeGradient" cx="30%" cy="30%" r="70%">
      <stop offset="0%" stop-color="#f4e87c"/>
      <stop offset="50%" stop-color="#d4c55a"/>
      <stop offset="100%" stop-color="#8b7d3a"/>
    </radialGradient>
  </defs>
  
  <!-- Background -->
  <circle cx="200" cy="200" r="200" fill="url(#bgGradient)"/>
  
  <!-- Cat head -->
  <ellipse cx="200" cy="220" rx="120" ry="110" fill="url(#furGradient)"/>
  
  <!-- Ears -->
  <path d="M120 140 L160 100 L180 160 Z" fill="url(#furGradient)"/>
  <path d="M280 140 L320 100 L220 160 Z" fill="url(#furGradient)"/>
  <path d="M135 135 L155 115 L165 145 Z" fill="#f0a5a5"/>
  <path d="M265 135 L285 115 L235 145 Z" fill="#f0a5a5"/>
  
  <!-- Face markings -->
  <path d="M140 180 Q160 160 180 180 Q200 200 220 180 Q240 160 260 180 Q250 220 200 230 Q150 220 140 180" fill="#e8ddd0"/>
  
  <!-- Eyes -->
  <ellipse cx="170" cy="200" rx="25" ry="30" fill="url(#eyeGradient)"/>
  <ellipse cx="230" cy="200" rx="25" ry="30" fill="url(#eyeGradient)"/>
  <ellipse cx="170" cy="200" rx="12" ry="20" fill="#2a2a2a"/>
  <ellipse cx="230" cy="200" rx="12" ry="20" fill="#2a2a2a"/>
  <ellipse cx="175" cy="195" rx="4" ry="6" fill="#ffffff"/>
  <ellipse cx="235" cy="195" rx="4" ry="6" fill="#ffffff"/>
  
  <!-- Nose -->
  <path d="M195 225 L205 225 L200 235 Z" fill="#ff9999"/>
  
  <!-- Mouth -->
  <path d="M200 235 Q185 245 175 240" stroke="#666" stroke-width="2" fill="none"/>
  <path d="M200 235 Q215 245 225 240" stroke="#666" stroke-width="2" fill="none"/>
  
  <!-- Whiskers -->
  <line x1="120" y1="220" x2="160" y2="215" stroke="#666" stroke-width="2"/>
  <line x1="125" y1="235" x2="165" y2="235" stroke="#666" stroke-width="2"/>
  <line x1="120" y1="250" x2="160" y2="255" stroke="#666" stroke-width="2"/>
  
  <line x1="280" y1="220" x2="240" y2="215" stroke="#666" stroke-width="2"/>
  <line x1="275" y1="235" x2="235" y2="235" stroke="#666" stroke-width="2"/>
  <line x1="280" y1="250" x2="240" y2="255" stroke="#666" stroke-width="2"/>
</svg>